<?xml version="1.0" encoding="UTF-8" standalone="no"?>
<!DOCTYPE svg PUBLIC "-//W3C//DTD SVG 1.1//EN"
 "http://www.w3.org/Graphics/SVG/1.1/DTD/svg11.dtd">
<!-- Generated by graphviz version 10.0.1 (20240210.2158)
 -->
<!-- Title: SQL_AdminQuerys.SQLQueries Pages: 1 -->
<svg width="158pt" height="220pt"
 viewBox="0.00 0.00 158.00 220.00" xmlns="http://www.w3.org/2000/svg" xmlns:xlink="http://www.w3.org/1999/xlink">
<g id="graph0" class="graph" transform="scale(1 1) rotate(0) translate(4 216)">
<title>SQL_AdminQuerys.SQLQueries</title>
<!-- Node1 -->
<g id="Node000001" class="node">
<title>Node1</title>
<g id="a_Node000001"><a xlink:title=" ">
<polygon fill="#999999" stroke="none" points="150,-212 0,-212 0,0 150,0 150,-212"/>
<text text-anchor="start" x="4.88" y="-198.5" font-family="Helvetica,sans-Serif" font-size="10.00">SQL_AdminQuerys.SQLQueries</text>
<text text-anchor="start" x="73.5" y="-182.5" font-family="Helvetica,sans-Serif" font-size="10.00"> </text>
<text text-anchor="start" x="10" y="-166.5" font-family="Helvetica,sans-Serif" font-size="10.00">+</text>
<text text-anchor="start" x="26" y="-166.5" font-family="Helvetica,sans-Serif" font-size="10.00">create_database()</text>
<text text-anchor="start" x="10" y="-150.5" font-family="Helvetica,sans-Serif" font-size="10.00">+</text>
<text text-anchor="start" x="26" y="-150.5" font-family="Helvetica,sans-Serif" font-size="10.00">create_user()</text>
<text text-anchor="start" x="10" y="-134.5" font-family="Helvetica,sans-Serif" font-size="10.00">+</text>
<text text-anchor="start" x="26" y="-134.5" font-family="Helvetica,sans-Serif" font-size="10.00">grant_access()</text>
<text text-anchor="start" x="10" y="-118.5" font-family="Helvetica,sans-Serif" font-size="10.00">+</text>
<text text-anchor="start" x="26" y="-118.5" font-family="Helvetica,sans-Serif" font-size="10.00">flush_privileges()</text>
<text text-anchor="start" x="10" y="-102.5" font-family="Helvetica,sans-Serif" font-size="10.00">+</text>
<text text-anchor="start" x="26" y="-102.5" font-family="Helvetica,sans-Serif" font-size="10.00">use_users_database()</text>
<text text-anchor="start" x="10" y="-86.5" font-family="Helvetica,sans-Serif" font-size="10.00">+</text>
<text text-anchor="start" x="26" y="-86.5" font-family="Helvetica,sans-Serif" font-size="10.00">save_user_credentials()</text>
<text text-anchor="start" x="10" y="-70.5" font-family="Helvetica,sans-Serif" font-size="10.00">+</text>
<text text-anchor="start" x="26" y="-70.5" font-family="Helvetica,sans-Serif" font-size="10.00">check_session_expired()</text>
<text text-anchor="start" x="10" y="-54.5" font-family="Helvetica,sans-Serif" font-size="10.00">+</text>
<text text-anchor="start" x="26" y="-54.5" font-family="Helvetica,sans-Serif" font-size="10.00">insert_session_id()</text>
<text text-anchor="start" x="10" y="-38.5" font-family="Helvetica,sans-Serif" font-size="10.00">+</text>
<text text-anchor="start" x="26" y="-38.5" font-family="Helvetica,sans-Serif" font-size="10.00">remove_session_id()</text>
<text text-anchor="start" x="10" y="-22.5" font-family="Helvetica,sans-Serif" font-size="10.00">+</text>
<text text-anchor="start" x="26" y="-22.5" font-family="Helvetica,sans-Serif" font-size="10.00">get_active_session()</text>
<text text-anchor="start" x="26" y="-6.5" font-family="Helvetica,sans-Serif" font-size="10.00">and 43 more...</text>
<polygon fill="#666666" stroke="#666666" points="0,-194 0,-194 150,-194 150,-194 0,-194"/>
<polygon fill="#666666" stroke="#666666" points="0,-178 0,-178 150,-178 150,-178 0,-178"/>
<polygon fill="none" stroke="#666666" points="0,0 0,-212 150,-212 150,0 0,0"/>
</a>
</g>
</g>
</g>
</svg>
