<?xml version="1.0" encoding="UTF-8" standalone="no"?>
<!DOCTYPE svg PUBLIC "-//W3C//DTD SVG 1.1//EN"
 "http://www.w3.org/Graphics/SVG/1.1/DTD/svg11.dtd">
<!-- Generated by graphviz version 10.0.1 (20240210.2158)
 -->
<!-- Title: tokenHandler.UserTokenHandler.is_authenticated Pages: 1 -->
<svg width="396pt" height="90pt"
 viewBox="0.00 0.00 395.50 90.00" xmlns="http://www.w3.org/2000/svg" xmlns:xlink="http://www.w3.org/1999/xlink">
<g id="graph0" class="graph" transform="scale(1 1) rotate(0) translate(4 86)">
<title>tokenHandler.UserTokenHandler.is_authenticated</title>
<!-- Node1 -->
<g id="Node000001" class="node">
<title>Node1</title>
<g id="a_Node000001"><a xlink:title=" ">
<polygon fill="#999999" stroke="#666666" points="166,-57 0,-57 0,-25 166,-25 166,-57"/>
<text text-anchor="start" x="8" y="-43.5" font-family="Helvetica,sans-Serif" font-size="10.00">tokenHandler.UserTokenHandler.is</text>
<text text-anchor="middle" x="83" y="-31.5" font-family="Helvetica,sans-Serif" font-size="10.00">_authenticated</text>
</a>
</g>
</g>
<!-- Node2 -->
<g id="Node000002" class="node">
<title>Node2</title>
<g id="a_Node000002"><a xlink:href="classtoken_handler_1_1_user_token_handler.html#a8ac3a2adbe433df939f2d3c78fd821bd" target="_top" xlink:title=" ">
<polygon fill="white" stroke="#666666" points="387.12,-82 202.38,-82 202.38,-50 387.12,-50 387.12,-82"/>
<text text-anchor="start" x="210.38" y="-68.5" font-family="Helvetica,sans-Serif" font-size="10.00">tokenHandler.UserTokenHandler.check</text>
<text text-anchor="middle" x="294.75" y="-56.5" font-family="Helvetica,sans-Serif" font-size="10.00">_token_validity</text>
</a>
</g>
</g>
<!-- Node1&#45;&gt;Node2 -->
<g id="edge1_Node000001_Node000002" class="edge">
<title>Node1&#45;&gt;Node2</title>
<g id="a_edge1_Node000001_Node000002"><a xlink:title=" ">
<path fill="none" stroke="#63b8ff" d="M166.3,-50.81C174.35,-51.77 182.58,-52.75 190.8,-53.73"/>
<polygon fill="#63b8ff" stroke="#63b8ff" points="190.13,-57.17 200.47,-54.88 190.96,-50.22 190.13,-57.17"/>
</a>
</g>
</g>
<!-- Node3 -->
<g id="Node000003" class="node">
<title>Node3</title>
<g id="a_Node000003"><a xlink:href="class_s_q_l___admin_querys_1_1_s_q_l_queries.html#a4f9b6546b6cd8b728bd5178ebe286d13" target="_top" xlink:title=" ">
<polygon fill="white" stroke="#666666" points="387.5,-32 202,-32 202,0 387.5,0 387.5,-32"/>
<text text-anchor="start" x="210" y="-18.5" font-family="Helvetica,sans-Serif" font-size="10.00">SQL_AdminQuerys.SQLQueries.check</text>
<text text-anchor="middle" x="294.75" y="-6.5" font-family="Helvetica,sans-Serif" font-size="10.00">_token_validity</text>
</a>
</g>
</g>
<!-- Node1&#45;&gt;Node3 -->
<g id="edge2_Node000001_Node000003" class="edge">
<title>Node1&#45;&gt;Node3</title>
<g id="a_edge2_Node000001_Node000003"><a xlink:title=" ">
<path fill="none" stroke="#63b8ff" d="M166.3,-31.19C174.18,-30.25 182.23,-29.29 190.28,-28.33"/>
<polygon fill="#63b8ff" stroke="#63b8ff" points="190.61,-31.82 200.12,-27.16 189.78,-24.87 190.61,-31.82"/>
</a>
</g>
</g>
</g>
</svg>
