<?xml version="1.0" encoding="UTF-8" standalone="no"?>
<!DOCTYPE svg PUBLIC "-//W3C//DTD SVG 1.1//EN"
 "http://www.w3.org/Graphics/SVG/1.1/DTD/svg11.dtd">
<!-- Generated by graphviz version 10.0.1 (20240210.2158)
 -->
<!-- Title: SQL_AdminConnector.SQLConAdmin.close Pages: 1 -->
<svg width="349pt" height="58pt"
 viewBox="0.00 0.00 349.00 58.00" xmlns="http://www.w3.org/2000/svg" xmlns:xlink="http://www.w3.org/1999/xlink">
<g id="graph0" class="graph" transform="scale(1 1) rotate(0) translate(4 54)">
<title>SQL_AdminConnector.SQLConAdmin.close</title>
<!-- Node1 -->
<g id="Node000001" class="node">
<title>Node1</title>
<g id="a_Node000001"><a xlink:title=" ">
<polygon fill="#999999" stroke="#666666" points="341,-32 188.5,-32 188.5,0 341,0 341,-32"/>
<text text-anchor="start" x="196.5" y="-18.5" font-family="Helvetica,sans-Serif" font-size="10.00">SQL_AdminConnector.SQLCon</text>
<text text-anchor="middle" x="264.75" y="-6.5" font-family="Helvetica,sans-Serif" font-size="10.00">Admin.close</text>
</a>
</g>
</g>
<!-- Node1&#45;&gt;Node1 -->
<g id="edge1_Node000001_Node000001" class="edge">
<title>Node1&#45;&gt;Node1</title>
<g id="a_edge1_Node000001_Node000001"><a xlink:title=" ">
<path fill="none" stroke="#63b8ff" d="M296.16,-43.71C290.93,-47.48 280.45,-50 264.75,-50 236.03,-50 224.82,-41.58 231.1,-32.44"/>
<polygon fill="#63b8ff" stroke="#63b8ff" points="299.59,-44.42 298.11,-33.93 292.72,-43.05 299.59,-44.42"/>
</a>
</g>
</g>
<!-- Node2 -->
<g id="Node000002" class="node">
<title>Node2</title>
<g id="a_Node000002"><a xlink:href="class_s_q_l___admin_connector_1_1_s_q_l_con_admin.html#ad531dbd25d7530cca6c9b26b9f3cbd19" target="_top" xlink:title=" ">
<polygon fill="white" stroke="#666666" points="152.5,-32 0,-32 0,0 152.5,0 152.5,-32"/>
<text text-anchor="start" x="8" y="-18.5" font-family="Helvetica,sans-Serif" font-size="10.00">SQL_AdminConnector.SQLCon</text>
<text text-anchor="middle" x="76.25" y="-6.5" font-family="Helvetica,sans-Serif" font-size="10.00">Admin.connect</text>
</a>
</g>
</g>
<!-- Node1&#45;&gt;Node2 -->
<g id="edge2_Node000001_Node000002" class="edge">
<title>Node1&#45;&gt;Node2</title>
<g id="a_edge2_Node000001_Node000002"><a xlink:title=" ">
<path fill="none" stroke="#63b8ff" d="M176.91,-16C168.91,-16 160.84,-16 152.95,-16"/>
<polygon fill="#63b8ff" stroke="#63b8ff" points="176.65,-19.5 186.65,-16 176.65,-12.5 176.65,-19.5"/>
</a>
</g>
</g>
</g>
</svg>
