<?xml version="1.0" encoding="UTF-8" standalone="no"?>
<!DOCTYPE svg PUBLIC "-//W3C//DTD SVG 1.1//EN"
 "http://www.w3.org/Graphics/SVG/1.1/DTD/svg11.dtd">
<!-- Generated by graphviz version 10.0.1 (20240210.2158)
 -->
<!-- Title: SQL_AdminConnector.SQLConAdmin Pages: 1 -->
<svg width="154pt" height="232pt"
 viewBox="0.00 0.00 154.00 232.00" xmlns="http://www.w3.org/2000/svg" xmlns:xlink="http://www.w3.org/1999/xlink">
<g id="graph0" class="graph" transform="scale(1 1) rotate(0) translate(4 228)">
<title>SQL_AdminConnector.SQLConAdmin</title>
<!-- Node1 -->
<g id="Node000001" class="node">
<title>Node1</title>
<g id="a_Node000001"><a xlink:title=" ">
<polygon fill="#999999" stroke="none" points="146,-224 0,-224 0,0 146,0 146,-224"/>
<text text-anchor="start" x="4.75" y="-210.5" font-family="Helvetica,sans-Serif" font-size="10.00">SQL_AdminConnector.SQLCon</text>
<text text-anchor="start" x="59.12" y="-198.5" font-family="Helvetica,sans-Serif" font-size="10.00">Admin</text>
<text text-anchor="start" x="15" y="-182.5" font-family="Helvetica,sans-Serif" font-size="10.00">+</text>
<text text-anchor="start" x="36" y="-182.5" font-family="Helvetica,sans-Serif" font-size="10.00">IP</text>
<text text-anchor="start" x="15" y="-166.5" font-family="Helvetica,sans-Serif" font-size="10.00">+</text>
<text text-anchor="start" x="36" y="-166.5" font-family="Helvetica,sans-Serif" font-size="10.00">USR</text>
<text text-anchor="start" x="15" y="-150.5" font-family="Helvetica,sans-Serif" font-size="10.00">+</text>
<text text-anchor="start" x="36" y="-150.5" font-family="Helvetica,sans-Serif" font-size="10.00">PW</text>
<text text-anchor="start" x="15" y="-134.5" font-family="Helvetica,sans-Serif" font-size="10.00">+</text>
<text text-anchor="start" x="36" y="-134.5" font-family="Helvetica,sans-Serif" font-size="10.00">DB</text>
<text text-anchor="start" x="15" y="-118.5" font-family="Helvetica,sans-Serif" font-size="10.00">+</text>
<text text-anchor="start" x="36" y="-118.5" font-family="Helvetica,sans-Serif" font-size="10.00">cnx</text>
<text text-anchor="start" x="15" y="-102.5" font-family="Helvetica,sans-Serif" font-size="10.00">+</text>
<text text-anchor="start" x="36" y="-102.5" font-family="Helvetica,sans-Serif" font-size="10.00">cursor</text>
<text text-anchor="start" x="15" y="-86.5" font-family="Helvetica,sans-Serif" font-size="10.00">+</text>
<text text-anchor="start" x="36" y="-86.5" font-family="Helvetica,sans-Serif" font-size="10.00">__init__()</text>
<text text-anchor="start" x="15" y="-70.5" font-family="Helvetica,sans-Serif" font-size="10.00">+</text>
<text text-anchor="start" x="36" y="-70.5" font-family="Helvetica,sans-Serif" font-size="10.00">setUser()</text>
<text text-anchor="start" x="15" y="-54.5" font-family="Helvetica,sans-Serif" font-size="10.00">+</text>
<text text-anchor="start" x="36" y="-54.5" font-family="Helvetica,sans-Serif" font-size="10.00">getConnectionInfo()</text>
<text text-anchor="start" x="15" y="-38.5" font-family="Helvetica,sans-Serif" font-size="10.00">+</text>
<text text-anchor="start" x="36" y="-38.5" font-family="Helvetica,sans-Serif" font-size="10.00">connect()</text>
<text text-anchor="start" x="15" y="-22.5" font-family="Helvetica,sans-Serif" font-size="10.00">+</text>
<text text-anchor="start" x="36" y="-22.5" font-family="Helvetica,sans-Serif" font-size="10.00">execute_query()</text>
<text text-anchor="start" x="15" y="-6.5" font-family="Helvetica,sans-Serif" font-size="10.00">+</text>
<text text-anchor="start" x="36" y="-6.5" font-family="Helvetica,sans-Serif" font-size="10.00">close()</text>
<polygon fill="#666666" stroke="#666666" points="0,-194 0,-194 146,-194 146,-194 0,-194"/>
<polygon fill="#666666" stroke="#666666" points="0,-98 0,-98 34,-98 34,-98 0,-98"/>
<polygon fill="#666666" stroke="#666666" points="34,-98 34,-98 146,-98 146,-98 34,-98"/>
<polygon fill="none" stroke="#666666" points="0,0 0,-224 146,-224 146,0 0,0"/>
</a>
</g>
</g>
</g>
</svg>
