<?xml version="1.0" encoding="UTF-8" standalone="no"?>
<!DOCTYPE svg PUBLIC "-//W3C//DTD SVG 1.1//EN"
 "http://www.w3.org/Graphics/SVG/1.1/DTD/svg11.dtd">
<!-- Generated by graphviz version 10.0.1 (20240210.2158)
 -->
<!-- Title: rapportsystem&#45;backend.Requests.CreateRapport.RapportMaker.RapportMaker.createRapport Pages: 1 -->
<svg width="402pt" height="362pt"
 viewBox="0.00 0.00 401.50 362.00" xmlns="http://www.w3.org/2000/svg" xmlns:xlink="http://www.w3.org/1999/xlink">

<svg id="main" version="1.1" xmlns="http://www.w3.org/2000/svg" xmlns:xlink="http://www.w3.org/1999/xlink" xml:space="preserve" onload="init(evt)">
<style type="text/css"><![CDATA[
.node, .edge {opacity: 0.7;}
.node.selected, .edge.selected {opacity: 1;}
.edge:hover path { stroke: red; }
.edge:hover polygon { stroke: red; fill: red; }
]]></style>
<script type="application/ecmascript" xlink:href="svg.min.js"/>
<svg id="graph" class="graph">
<g id="graph0" class="graph" transform="scale(1 1) rotate(0) translate(4 358)">
<title>rapportsystem&#45;backend.Requests.CreateRapport.RapportMaker.RapportMaker.createRapport</title>
<!-- Node1 -->
<g id="Node000001" class="node">
<title>Node1</title>
<g id="a_Node000001"><a xlink:title=" ">
<polygon fill="#999999" stroke="#666666" points="178.75,-199 0,-199 0,-155 178.75,-155 178.75,-199"/>
<text text-anchor="start" x="8" y="-185.5" font-family="Helvetica,sans-Serif" font-size="10.00">rapportsystem&#45;backend.Requests.</text>
<text text-anchor="start" x="8" y="-173.5" font-family="Helvetica,sans-Serif" font-size="10.00">CreateRapport.RapportMaker.Rapport</text>
<text text-anchor="middle" x="89.38" y="-161.5" font-family="Helvetica,sans-Serif" font-size="10.00">Maker.createRapport</text>
</a>
</g>
</g>
<!-- Node2 -->
<g id="Node000002" class="node">
<title>Node2</title>
<g id="a_Node000002"><a xlink:href="classrapportsystem-backend_1_1_requests_1_1_create_rapport_1_1_rapport_maker_1_1_rapport_maker.html#a1804f7ec1a944ea3ce28c539a186d04b" target="_top" xlink:title=" ">
<polygon fill="white" stroke="#666666" points="393.5,-354 214.75,-354 214.75,-310 393.5,-310 393.5,-354"/>
<text text-anchor="start" x="222.75" y="-340.5" font-family="Helvetica,sans-Serif" font-size="10.00">rapportsystem&#45;backend.Requests.</text>
<text text-anchor="start" x="222.75" y="-328.5" font-family="Helvetica,sans-Serif" font-size="10.00">CreateRapport.RapportMaker.Rapport</text>
<text text-anchor="middle" x="304.12" y="-316.5" font-family="Helvetica,sans-Serif" font-size="10.00">Maker.makeBorreproveRapport</text>
</a>
</g>
</g>
<!-- Node1&#45;&gt;Node2 -->
<g id="edge1_Node000001_Node000002" class="edge">
<title>Node1&#45;&gt;Node2</title>
<g id="a_edge1_Node000001_Node000002"><a xlink:title=" ">
<path fill="none" stroke="#63b8ff" d="M107.41,-199.28C129.46,-226.72 170.33,-273.11 214.75,-301 216.61,-302.17 218.52,-303.3 220.47,-304.39"/>
<polygon fill="#63b8ff" stroke="#63b8ff" points="218.65,-307.39 229.14,-308.87 221.86,-301.17 218.65,-307.39"/>
</a>
</g>
</g>
<!-- Node3 -->
<g id="Node000003" class="node">
<title>Node3</title>
<g id="a_Node000003"><a xlink:href="classrapportsystem-backend_1_1_requests_1_1_create_rapport_1_1_rapport_maker_1_1_rapport_maker.html#a7bab3731cd256dd9e5c6c809ec8f6a4b" target="_top" xlink:title=" ">
<polygon fill="white" stroke="#666666" points="393.5,-292 214.75,-292 214.75,-248 393.5,-248 393.5,-292"/>
<text text-anchor="start" x="222.75" y="-278.5" font-family="Helvetica,sans-Serif" font-size="10.00">rapportsystem&#45;backend.Requests.</text>
<text text-anchor="start" x="222.75" y="-266.5" font-family="Helvetica,sans-Serif" font-size="10.00">CreateRapport.RapportMaker.Rapport</text>
<text text-anchor="middle" x="304.12" y="-254.5" font-family="Helvetica,sans-Serif" font-size="10.00">Maker.makeCustomRapport</text>
</a>
</g>
</g>
<!-- Node1&#45;&gt;Node3 -->
<g id="edge2_Node000001_Node000003" class="edge">
<title>Node1&#45;&gt;Node3</title>
<g id="a_edge2_Node000001_Node000003"><a xlink:title=" ">
<path fill="none" stroke="#63b8ff" d="M132.07,-199.42C155.94,-211.84 186.64,-227.12 214.75,-239 218.3,-240.5 221.95,-241.99 225.66,-243.46"/>
<polygon fill="#63b8ff" stroke="#63b8ff" points="224.19,-246.64 234.78,-246.98 226.71,-240.11 224.19,-246.64"/>
</a>
</g>
</g>
<!-- Node4 -->
<g id="Node000004" class="node">
<title>Node4</title>
<g id="a_Node000004"><a xlink:href="classrapportsystem-backend_1_1_requests_1_1_create_rapport_1_1_rapport_maker_1_1_rapport_maker.html#a8ac557c94bfaacf4edfd98a1abe151ef" target="_top" xlink:title=" ">
<polygon fill="white" stroke="#666666" points="393.5,-230 214.75,-230 214.75,-186 393.5,-186 393.5,-230"/>
<text text-anchor="start" x="222.75" y="-216.5" font-family="Helvetica,sans-Serif" font-size="10.00">rapportsystem&#45;backend.Requests.</text>
<text text-anchor="start" x="222.75" y="-204.5" font-family="Helvetica,sans-Serif" font-size="10.00">CreateRapport.RapportMaker.Rapport</text>
<text text-anchor="middle" x="304.12" y="-192.5" font-family="Helvetica,sans-Serif" font-size="10.00">Maker.makeDisaRapport</text>
</a>
</g>
</g>
<!-- Node1&#45;&gt;Node4 -->
<g id="edge3_Node000001_Node000004" class="edge">
<title>Node1&#45;&gt;Node4</title>
<g id="a_edge3_Node000001_Node000004"><a xlink:title=" ">
<path fill="none" stroke="#63b8ff" d="M179.06,-189.92C187.04,-191.09 195.16,-192.27 203.23,-193.44"/>
<polygon fill="#63b8ff" stroke="#63b8ff" points="202.69,-196.9 213.09,-194.88 203.7,-189.97 202.69,-196.9"/>
</a>
</g>
</g>
<!-- Node5 -->
<g id="Node000005" class="node">
<title>Node5</title>
<g id="a_Node000005"><a xlink:href="classrapportsystem-backend_1_1_requests_1_1_create_rapport_1_1_rapport_maker_1_1_rapport_maker.html#a37c9267811964d59329c866d158a8648" target="_top" xlink:title=" ">
<polygon fill="white" stroke="#666666" points="393.5,-168 214.75,-168 214.75,-124 393.5,-124 393.5,-168"/>
<text text-anchor="start" x="222.75" y="-154.5" font-family="Helvetica,sans-Serif" font-size="10.00">rapportsystem&#45;backend.Requests.</text>
<text text-anchor="start" x="222.75" y="-142.5" font-family="Helvetica,sans-Serif" font-size="10.00">CreateRapport.RapportMaker.Rapport</text>
<text text-anchor="middle" x="304.12" y="-130.5" font-family="Helvetica,sans-Serif" font-size="10.00">Maker.makeSandanalyseRapport</text>
</a>
</g>
</g>
<!-- Node1&#45;&gt;Node5 -->
<g id="edge4_Node000001_Node000005" class="edge">
<title>Node1&#45;&gt;Node5</title>
<g id="a_edge4_Node000001_Node000005"><a xlink:title=" ">
<path fill="none" stroke="#63b8ff" d="M179.06,-164.08C187.04,-162.91 195.16,-161.73 203.23,-160.56"/>
<polygon fill="#63b8ff" stroke="#63b8ff" points="203.7,-164.03 213.09,-159.12 202.69,-157.1 203.7,-164.03"/>
</a>
</g>
</g>
<!-- Node6 -->
<g id="Node000006" class="node">
<title>Node6</title>
<g id="a_Node000006"><a xlink:href="classrapportsystem-backend_1_1_requests_1_1_create_rapport_1_1_rapport_maker_1_1_rapport_maker.html#a7e3b63bc882fa47e77daaba9020f0eef" target="_top" xlink:title=" ">
<polygon fill="white" stroke="#666666" points="393.5,-106 214.75,-106 214.75,-62 393.5,-62 393.5,-106"/>
<text text-anchor="start" x="222.75" y="-92.5" font-family="Helvetica,sans-Serif" font-size="10.00">rapportsystem&#45;backend.Requests.</text>
<text text-anchor="start" x="222.75" y="-80.5" font-family="Helvetica,sans-Serif" font-size="10.00">CreateRapport.RapportMaker.Rapport</text>
<text text-anchor="middle" x="304.12" y="-68.5" font-family="Helvetica,sans-Serif" font-size="10.00">Maker.makeSkrapRapport</text>
</a>
</g>
</g>
<!-- Node1&#45;&gt;Node6 -->
<g id="edge5_Node000001_Node000006" class="edge">
<title>Node1&#45;&gt;Node6</title>
<g id="a_edge5_Node000001_Node000006"><a xlink:title=" ">
<path fill="none" stroke="#63b8ff" d="M132.07,-154.58C155.94,-142.16 186.64,-126.88 214.75,-115 218.3,-113.5 221.95,-112.01 225.66,-110.54"/>
<polygon fill="#63b8ff" stroke="#63b8ff" points="226.71,-113.89 234.78,-107.02 224.19,-107.36 226.71,-113.89"/>
</a>
</g>
</g>
<!-- Node7 -->
<g id="Node000007" class="node">
<title>Node7</title>
<g id="a_Node000007"><a xlink:href="classrapportsystem-backend_1_1_requests_1_1_create_rapport_1_1_rapport_maker_1_1_rapport_maker.html#a90b8acbd75d2bda243df732e100e9f49" target="_top" xlink:title=" ">
<polygon fill="white" stroke="#666666" points="393.5,-44 214.75,-44 214.75,0 393.5,0 393.5,-44"/>
<text text-anchor="start" x="222.75" y="-30.5" font-family="Helvetica,sans-Serif" font-size="10.00">rapportsystem&#45;backend.Requests.</text>
<text text-anchor="start" x="222.75" y="-18.5" font-family="Helvetica,sans-Serif" font-size="10.00">CreateRapport.RapportMaker.Rapport</text>
<text text-anchor="middle" x="304.12" y="-6.5" font-family="Helvetica,sans-Serif" font-size="10.00">Maker.makeSmelteRapport</text>
</a>
</g>
</g>
<!-- Node1&#45;&gt;Node7 -->
<g id="edge6_Node000001_Node000007" class="edge">
<title>Node1&#45;&gt;Node7</title>
<g id="a_edge6_Node000001_Node000007"><a xlink:title=" ">
<path fill="none" stroke="#63b8ff" d="M107.41,-154.72C129.46,-127.28 170.33,-80.89 214.75,-53 216.61,-51.83 218.52,-50.7 220.47,-49.61"/>
<polygon fill="#63b8ff" stroke="#63b8ff" points="221.86,-52.83 229.14,-45.13 218.65,-46.61 221.86,-52.83"/>
</a>
</g>
</g>
</g>
</svg>
</svg>

<style type='text/css'>
<![CDATA[
[data-mouse-over-selected='false'] { opacity: 0.7; }
[data-mouse-over-selected='true']  { opacity: 1.0; }
]]>
</style>
<script type="application/ecmascript"><![CDATA[
document.addEventListener('DOMContentLoaded', (event) => {
  highlightEdges();
  highlightAdjacentNodes();
});
]]></script>
</svg>
