<?xml version="1.0" encoding="UTF-8" standalone="no"?>
<!DOCTYPE svg PUBLIC "-//W3C//DTD SVG 1.1//EN"
 "http://www.w3.org/Graphics/SVG/1.1/DTD/svg11.dtd">
<!-- Generated by graphviz version 10.0.1 (20240210.2158)
 -->
<!-- Title: rapportsystem&#45;backend.Requests.dataHandler.tableInfoExtractor.table_info_extractor Pages: 1 -->
<svg width="186pt" height="100pt"
 viewBox="0.00 0.00 186.00 100.00" xmlns="http://www.w3.org/2000/svg" xmlns:xlink="http://www.w3.org/1999/xlink">
<g id="graph0" class="graph" transform="scale(1 1) rotate(0) translate(4 96)">
<title>rapportsystem&#45;backend.Requests.dataHandler.tableInfoExtractor.table_info_extractor</title>
<!-- Node1 -->
<g id="Node000001" class="node">
<title>Node1</title>
<g id="a_Node000001"><a xlink:title=" ">
<polygon fill="#999999" stroke="none" points="178,-92 0,-92 0,0 178,0 178,-92"/>
<text text-anchor="start" x="5" y="-78.5" font-family="Helvetica,sans-Serif" font-size="10.00">rapportsystem&#45;backend.Requests.data</text>
<text text-anchor="start" x="5" y="-66.5" font-family="Helvetica,sans-Serif" font-size="10.00">Handler.tableInfoExtractor.table</text>
<text text-anchor="start" x="57.12" y="-54.5" font-family="Helvetica,sans-Serif" font-size="10.00">_info_extractor</text>
<text text-anchor="start" x="87.5" y="-38.5" font-family="Helvetica,sans-Serif" font-size="10.00"> </text>
<text text-anchor="start" x="17" y="-22.5" font-family="Helvetica,sans-Serif" font-size="10.00">+</text>
<text text-anchor="start" x="40" y="-22.5" font-family="Helvetica,sans-Serif" font-size="10.00">__init__()</text>
<text text-anchor="start" x="17" y="-6.5" font-family="Helvetica,sans-Serif" font-size="10.00">+</text>
<text text-anchor="start" x="40" y="-6.5" font-family="Helvetica,sans-Serif" font-size="10.00">extractTableDescription()</text>
<polygon fill="#666666" stroke="#666666" points="0,-50 0,-50 178,-50 178,-50 0,-50"/>
<polygon fill="#666666" stroke="#666666" points="0,-34 0,-34 178,-34 178,-34 0,-34"/>
<polygon fill="none" stroke="#666666" points="0,0 0,-92 178,-92 178,0 0,0"/>
</a>
</g>
</g>
</g>
</svg>
