<?xml version="1.0" encoding="UTF-8" standalone="no"?>
<!DOCTYPE svg PUBLIC "-//W3C//DTD SVG 1.1//EN"
 "http://www.w3.org/Graphics/SVG/1.1/DTD/svg11.dtd">
<!-- Generated by graphviz version 10.0.1 (20240210.2158)
 -->
<!-- Title: tokenHandler.UserTokenHandler Pages: 1 -->
<svg width="157pt" height="156pt"
 viewBox="0.00 0.00 157.00 156.00" xmlns="http://www.w3.org/2000/svg" xmlns:xlink="http://www.w3.org/1999/xlink">
<g id="graph0" class="graph" transform="scale(1 1) rotate(0) translate(4 152)">
<title>tokenHandler.UserTokenHandler</title>
<!-- Node1 -->
<g id="Node000001" class="node">
<title>Node1</title>
<g id="a_Node000001"><a xlink:title=" ">
<polygon fill="#999999" stroke="none" points="149,-148 0,-148 0,0 149,0 149,-148"/>
<text text-anchor="start" x="4.75" y="-134.5" font-family="Helvetica,sans-Serif" font-size="10.00">tokenHandler.UserTokenHandler</text>
<text text-anchor="start" x="73" y="-118.5" font-family="Helvetica,sans-Serif" font-size="10.00"> </text>
<text text-anchor="start" x="6.5" y="-102.5" font-family="Helvetica,sans-Serif" font-size="10.00">+</text>
<text text-anchor="start" x="19" y="-102.5" font-family="Helvetica,sans-Serif" font-size="10.00">__init__()</text>
<text text-anchor="start" x="6.5" y="-86.5" font-family="Helvetica,sans-Serif" font-size="10.00">+</text>
<text text-anchor="start" x="19" y="-86.5" font-family="Helvetica,sans-Serif" font-size="10.00">login()</text>
<text text-anchor="start" x="6.5" y="-70.5" font-family="Helvetica,sans-Serif" font-size="10.00">+</text>
<text text-anchor="start" x="19" y="-70.5" font-family="Helvetica,sans-Serif" font-size="10.00">is_authenticated()</text>
<text text-anchor="start" x="6.5" y="-54.5" font-family="Helvetica,sans-Serif" font-size="10.00">+</text>
<text text-anchor="start" x="19" y="-54.5" font-family="Helvetica,sans-Serif" font-size="10.00">check_token_validity()</text>
<text text-anchor="start" x="6.5" y="-38.5" font-family="Helvetica,sans-Serif" font-size="10.00">+</text>
<text text-anchor="start" x="19" y="-38.5" font-family="Helvetica,sans-Serif" font-size="10.00">logout()</text>
<text text-anchor="start" x="6.5" y="-22.5" font-family="Helvetica,sans-Serif" font-size="10.00">+</text>
<text text-anchor="start" x="19" y="-22.5" font-family="Helvetica,sans-Serif" font-size="10.00">revoke_tokens_by_user_id()</text>
<text text-anchor="start" x="6.5" y="-6.5" font-family="Helvetica,sans-Serif" font-size="10.00">+</text>
<text text-anchor="start" x="19" y="-6.5" font-family="Helvetica,sans-Serif" font-size="10.00">store_token()</text>
<polygon fill="#666666" stroke="#666666" points="0,-130 0,-130 149,-130 149,-130 0,-130"/>
<polygon fill="#666666" stroke="#666666" points="0,-114 0,-114 149,-114 149,-114 0,-114"/>
<polygon fill="none" stroke="#666666" points="0,0 0,-148 149,-148 149,0 0,0"/>
</a>
</g>
</g>
</g>
</svg>
