<?xml version="1.0" encoding="UTF-8" standalone="no"?>
<!DOCTYPE svg PUBLIC "-//W3C//DTD SVG 1.1//EN"
 "http://www.w3.org/Graphics/SVG/1.1/DTD/svg11.dtd">
<!-- Generated by graphviz version 10.0.1 (20240210.2158)
 -->
<!-- Title: tokenHandler.UserTokenHandler.logout Pages: 1 -->
<svg width="416pt" height="90pt"
 viewBox="0.00 0.00 415.75 90.00" xmlns="http://www.w3.org/2000/svg" xmlns:xlink="http://www.w3.org/1999/xlink">
<g id="graph0" class="graph" transform="scale(1 1) rotate(0) translate(4 86)">
<title>tokenHandler.UserTokenHandler.logout</title>
<!-- Node1 -->
<g id="Node000001" class="node">
<title>Node1</title>
<g id="a_Node000001"><a xlink:title=" ">
<polygon fill="#999999" stroke="#666666" points="184.75,-51 0,-51 0,-31 184.75,-31 184.75,-51"/>
<text text-anchor="middle" x="92.38" y="-37.5" font-family="Helvetica,sans-Serif" font-size="10.00">tokenHandler.UserTokenHandler.logout</text>
</a>
</g>
</g>
<!-- Node2 -->
<g id="Node000002" class="node">
<title>Node2</title>
<g id="a_Node000002"><a xlink:href="classtoken_handler_1_1_user_token_handler.html#a6e39f14f32889949a19b37439b7000ce" target="_top" xlink:title=" ">
<polygon fill="white" stroke="#666666" points="407.38,-82 221.12,-82 221.12,-50 407.38,-50 407.38,-82"/>
<text text-anchor="start" x="229.12" y="-68.5" font-family="Helvetica,sans-Serif" font-size="10.00">tokenHandler.UserTokenHandler.revoke</text>
<text text-anchor="middle" x="314.25" y="-56.5" font-family="Helvetica,sans-Serif" font-size="10.00">_tokens_by_user_id</text>
</a>
</g>
</g>
<!-- Node1&#45;&gt;Node2 -->
<g id="edge1_Node000001_Node000002" class="edge">
<title>Node1&#45;&gt;Node2</title>
<g id="a_edge1_Node000001_Node000002"><a xlink:title=" ">
<path fill="none" stroke="#63b8ff" d="M185.03,-51.42C193.04,-52.33 201.18,-53.26 209.28,-54.18"/>
<polygon fill="#63b8ff" stroke="#63b8ff" points="208.85,-57.65 219.18,-55.3 209.64,-50.7 208.85,-57.65"/>
</a>
</g>
</g>
<!-- Node3 -->
<g id="Node000003" class="node">
<title>Node3</title>
<g id="a_Node000003"><a xlink:href="class_s_q_l___admin_querys_1_1_s_q_l_queries.html#a514b5db403f47a7855ecd8d970fbdae0" target="_top" xlink:title=" ">
<polygon fill="white" stroke="#666666" points="407.75,-32 220.75,-32 220.75,0 407.75,0 407.75,-32"/>
<text text-anchor="start" x="228.75" y="-18.5" font-family="Helvetica,sans-Serif" font-size="10.00">SQL_AdminQuerys.SQLQueries.revoke</text>
<text text-anchor="middle" x="314.25" y="-6.5" font-family="Helvetica,sans-Serif" font-size="10.00">_tokens_by_user_id</text>
</a>
</g>
</g>
<!-- Node1&#45;&gt;Node3 -->
<g id="edge2_Node000001_Node000003" class="edge">
<title>Node1&#45;&gt;Node3</title>
<g id="a_edge2_Node000001_Node000003"><a xlink:title=" ">
<path fill="none" stroke="#63b8ff" d="M185.03,-30.58C192.96,-29.68 201.02,-28.76 209.04,-27.85"/>
<polygon fill="#63b8ff" stroke="#63b8ff" points="209.28,-31.34 218.82,-26.74 208.49,-24.39 209.28,-31.34"/>
</a>
</g>
</g>
</g>
</svg>
