<?xml version="1.0" encoding="UTF-8" standalone="no"?>
<!DOCTYPE svg PUBLIC "-//W3C//DTD SVG 1.1//EN"
 "http://www.w3.org/Graphics/SVG/1.1/DTD/svg11.dtd">
<!-- Generated by graphviz version 10.0.1 (20240210.2158)
 -->
<!-- Title: rapportsystem&#45;backend.Requests.dataHandler.dataExtractor.data_extractor Pages: 1 -->
<svg width="186pt" height="168pt"
 viewBox="0.00 0.00 186.00 168.00" xmlns="http://www.w3.org/2000/svg" xmlns:xlink="http://www.w3.org/1999/xlink">
<g id="graph0" class="graph" transform="scale(1 1) rotate(0) translate(4 164)">
<title>rapportsystem&#45;backend.Requests.dataHandler.dataExtractor.data_extractor</title>
<!-- Node1 -->
<g id="Node000001" class="node">
<title>Node1</title>
<g id="a_Node000001"><a xlink:title=" ">
<polygon fill="#999999" stroke="none" points="178,-160 0,-160 0,0 178,0 178,-160"/>
<text text-anchor="start" x="5" y="-146.5" font-family="Helvetica,sans-Serif" font-size="10.00">rapportsystem&#45;backend.Requests.data</text>
<text text-anchor="start" x="9.12" y="-134.5" font-family="Helvetica,sans-Serif" font-size="10.00">Handler.dataExtractor.data_extractor</text>
<text text-anchor="start" x="87.5" y="-118.5" font-family="Helvetica,sans-Serif" font-size="10.00"> </text>
<text text-anchor="start" x="17" y="-102.5" font-family="Helvetica,sans-Serif" font-size="10.00">+</text>
<text text-anchor="start" x="40" y="-102.5" font-family="Helvetica,sans-Serif" font-size="10.00">__init__()</text>
<text text-anchor="start" x="17" y="-86.5" font-family="Helvetica,sans-Serif" font-size="10.00">+</text>
<text text-anchor="start" x="40" y="-86.5" font-family="Helvetica,sans-Serif" font-size="10.00">extractTableDescription()</text>
<text text-anchor="start" x="17" y="-70.5" font-family="Helvetica,sans-Serif" font-size="10.00">+</text>
<text text-anchor="start" x="40" y="-70.5" font-family="Helvetica,sans-Serif" font-size="10.00">extractData()</text>
<text text-anchor="start" x="17" y="-54.5" font-family="Helvetica,sans-Serif" font-size="10.00">+</text>
<text text-anchor="start" x="40" y="-54.5" font-family="Helvetica,sans-Serif" font-size="10.00">extractGivenTable()</text>
<text text-anchor="start" x="17" y="-38.5" font-family="Helvetica,sans-Serif" font-size="10.00">+</text>
<text text-anchor="start" x="40" y="-38.5" font-family="Helvetica,sans-Serif" font-size="10.00">getDatabaseName()</text>
<text text-anchor="start" x="17" y="-22.5" font-family="Helvetica,sans-Serif" font-size="10.00">+</text>
<text text-anchor="start" x="40" y="-22.5" font-family="Helvetica,sans-Serif" font-size="10.00">getAllSubUsers()</text>
<text text-anchor="start" x="17.38" y="-6.5" font-family="Helvetica,sans-Serif" font-size="10.00">#</text>
<text text-anchor="start" x="40" y="-6.5" font-family="Helvetica,sans-Serif" font-size="10.00">_parse_date()</text>
<polygon fill="#666666" stroke="#666666" points="0,-130 0,-130 178,-130 178,-130 0,-130"/>
<polygon fill="#666666" stroke="#666666" points="0,-114 0,-114 178,-114 178,-114 0,-114"/>
<polygon fill="none" stroke="#666666" points="0,0 0,-160 178,-160 178,0 0,0"/>
</a>
</g>
</g>
</g>
</svg>
