<?xml version="1.0" encoding="UTF-8" standalone="no"?>
<!DOCTYPE svg PUBLIC "-//W3C//DTD SVG 1.1//EN"
 "http://www.w3.org/Graphics/SVG/1.1/DTD/svg11.dtd">
<!-- Generated by graphviz version 10.0.1 (20240210.2158)
 -->
<!-- Title: rapportsystem&#45;backend.Requests.POST_R.deleteUser.delete_user_tokens Pages: 1 -->
<svg width="657pt" height="40pt"
 viewBox="0.00 0.00 656.75 40.00" xmlns="http://www.w3.org/2000/svg" xmlns:xlink="http://www.w3.org/1999/xlink">
<g id="graph0" class="graph" transform="scale(1 1) rotate(0) translate(4 36)">
<title>rapportsystem&#45;backend.Requests.POST_R.deleteUser.delete_user_tokens</title>
<!-- Node1 -->
<g id="Node000001" class="node">
<title>Node1</title>
<g id="a_Node000001"><a xlink:title=" ">
<polygon fill="#999999" stroke="#666666" points="648.75,-32 457.25,-32 457.25,0 648.75,0 648.75,-32"/>
<text text-anchor="start" x="465.25" y="-18.5" font-family="Helvetica,sans-Serif" font-size="10.00">rapportsystem&#45;backend.Requests.</text>
<text text-anchor="middle" x="553" y="-6.5" font-family="Helvetica,sans-Serif" font-size="10.00">POST_R.deleteUser.delete_user_tokens</text>
</a>
</g>
</g>
<!-- Node2 -->
<g id="Node000002" class="node">
<title>Node2</title>
<g id="a_Node000002"><a xlink:href="namespacerapportsystem-backend_1_1_requests_1_1_p_o_s_t___r_1_1delete_user.html#ac3884b3e7285d13eac75560230b65f86" target="_top" xlink:title=" ">
<polygon fill="white" stroke="#666666" points="421.25,-32 220,-32 220,0 421.25,0 421.25,-32"/>
<text text-anchor="start" x="228" y="-18.5" font-family="Helvetica,sans-Serif" font-size="10.00">rapportsystem&#45;backend.Requests.</text>
<text text-anchor="middle" x="320.62" y="-6.5" font-family="Helvetica,sans-Serif" font-size="10.00">POST_R.deleteUser.remove_user_account</text>
</a>
</g>
</g>
<!-- Node1&#45;&gt;Node2 -->
<g id="edge1_Node000001_Node000002" class="edge">
<title>Node1&#45;&gt;Node2</title>
<g id="a_edge1_Node000001_Node000002"><a xlink:title=" ">
<path fill="none" stroke="#63b8ff" d="M445.7,-16C437.69,-16 429.63,-16 421.66,-16"/>
<polygon fill="#63b8ff" stroke="#63b8ff" points="445.45,-19.5 455.45,-16 445.45,-12.5 445.45,-19.5"/>
</a>
</g>
</g>
<!-- Node3 -->
<g id="Node000003" class="node">
<title>Node3</title>
<g id="a_Node000003"><a xlink:href="namespacerapportsystem-backend_1_1_requests_1_1_p_o_s_t___r_1_1delete_user.html#a28df8c738a39c243e3d3e962585057bf" target="_top" xlink:title=" ">
<polygon fill="white" stroke="#666666" points="184,-32 0,-32 0,0 184,0 184,-32"/>
<text text-anchor="start" x="8" y="-18.5" font-family="Helvetica,sans-Serif" font-size="10.00">rapportsystem&#45;backend.Requests.</text>
<text text-anchor="middle" x="92" y="-6.5" font-family="Helvetica,sans-Serif" font-size="10.00">POST_R.deleteUser.delete_user_route</text>
</a>
</g>
</g>
<!-- Node2&#45;&gt;Node3 -->
<g id="edge2_Node000002_Node000003" class="edge">
<title>Node2&#45;&gt;Node3</title>
<g id="a_edge2_Node000002_Node000003"><a xlink:title=" ">
<path fill="none" stroke="#63b8ff" d="M208.24,-16C200.22,-16 192.18,-16 184.28,-16"/>
<polygon fill="#63b8ff" stroke="#63b8ff" points="208.05,-19.5 218.05,-16 208.05,-12.5 208.05,-19.5"/>
</a>
</g>
</g>
</g>
</svg>
