<?xml version="1.0" encoding="UTF-8" standalone="no"?>
<!DOCTYPE svg PUBLIC "-//W3C//DTD SVG 1.1//EN"
 "http://www.w3.org/Graphics/SVG/1.1/DTD/svg11.dtd">
<!-- Generated by graphviz version 10.0.1 (20240210.2158)
 -->
<!-- Title: rapportsystem&#45;backend.Requests.POST_R.adminDeleteUser.admin_delete_subuser_route Pages: 1 -->
<svg width="595pt" height="136pt"
 viewBox="0.00 0.00 595.25 136.00" xmlns="http://www.w3.org/2000/svg" xmlns:xlink="http://www.w3.org/1999/xlink">
<g id="graph0" class="graph" transform="scale(1 1) rotate(0) translate(4 132)">
<title>rapportsystem&#45;backend.Requests.POST_R.adminDeleteUser.admin_delete_subuser_route</title>
<!-- Node1 -->
<g id="Node000001" class="node">
<title>Node1</title>
<g id="a_Node000001"><a xlink:title=" ">
<polygon fill="#999999" stroke="#666666" points="165.25,-97 0,-97 0,-53 165.25,-53 165.25,-97"/>
<text text-anchor="start" x="8" y="-83.5" font-family="Helvetica,sans-Serif" font-size="10.00">rapportsystem&#45;backend.Requests.</text>
<text text-anchor="start" x="8" y="-71.5" font-family="Helvetica,sans-Serif" font-size="10.00">POST_R.adminDeleteUser.admin</text>
<text text-anchor="middle" x="82.62" y="-59.5" font-family="Helvetica,sans-Serif" font-size="10.00">_delete_subuser_route</text>
</a>
</g>
</g>
<!-- Node2 -->
<g id="Node000002" class="node">
<title>Node2</title>
<g id="a_Node000002"><a xlink:href="namespacerapportsystem-backend_1_1_requests_1_1_p_o_s_t___r_1_1admin_delete_user.html#aab1e35b9c30b832ac340165622b79dcc" target="_top" xlink:title=" ">
<polygon fill="white" stroke="#666666" points="366.5,-128 201.25,-128 201.25,-84 366.5,-84 366.5,-128"/>
<text text-anchor="start" x="209.25" y="-114.5" font-family="Helvetica,sans-Serif" font-size="10.00">rapportsystem&#45;backend.Requests.</text>
<text text-anchor="start" x="209.25" y="-102.5" font-family="Helvetica,sans-Serif" font-size="10.00">POST_R.adminDeleteUser.remove</text>
<text text-anchor="middle" x="283.88" y="-90.5" font-family="Helvetica,sans-Serif" font-size="10.00">_SQL_account</text>
</a>
</g>
</g>
<!-- Node1&#45;&gt;Node2 -->
<g id="edge1_Node000001_Node000002" class="edge">
<title>Node1&#45;&gt;Node2</title>
<g id="a_edge1_Node000001_Node000002"><a xlink:title=" ">
<path fill="none" stroke="#63b8ff" d="M165.53,-87.74C173.48,-88.98 181.59,-90.24 189.64,-91.49"/>
<polygon fill="#63b8ff" stroke="#63b8ff" points="189.05,-94.94 199.47,-93.02 190.13,-88.03 189.05,-94.94"/>
</a>
</g>
</g>
<!-- Node3 -->
<g id="Node000003" class="node">
<title>Node3</title>
<g id="a_Node000003"><a xlink:href="namespacerapportsystem-backend_1_1_requests_1_1_p_o_s_t___r_1_1admin_delete_user.html#a949291ea7f4826d2f8b727f6ad65dcbc" target="_top" xlink:title=" ">
<polygon fill="white" stroke="#666666" points="366.5,-66 201.25,-66 201.25,-22 366.5,-22 366.5,-66"/>
<text text-anchor="start" x="209.25" y="-52.5" font-family="Helvetica,sans-Serif" font-size="10.00">rapportsystem&#45;backend.Requests.</text>
<text text-anchor="start" x="209.25" y="-40.5" font-family="Helvetica,sans-Serif" font-size="10.00">POST_R.adminDeleteUser.remove</text>
<text text-anchor="middle" x="283.88" y="-28.5" font-family="Helvetica,sans-Serif" font-size="10.00">_user_account</text>
</a>
</g>
</g>
<!-- Node1&#45;&gt;Node3 -->
<g id="edge2_Node000001_Node000003" class="edge">
<title>Node1&#45;&gt;Node3</title>
<g id="a_edge2_Node000001_Node000003"><a xlink:title=" ">
<path fill="none" stroke="#63b8ff" d="M165.53,-62.26C173.48,-61.02 181.59,-59.76 189.64,-58.51"/>
<polygon fill="#63b8ff" stroke="#63b8ff" points="190.13,-61.97 199.47,-56.98 189.05,-55.06 190.13,-61.97"/>
</a>
</g>
</g>
<!-- Node4 -->
<g id="Node000004" class="node">
<title>Node4</title>
<g id="a_Node000004"><a xlink:href="namespacerapportsystem-backend_1_1_requests_1_1_p_o_s_t___r_1_1admin_delete_user.html#abd0e2139a1b8df83905b005201c44191" target="_top" xlink:title=" ">
<polygon fill="white" stroke="#666666" points="577.5,-94 412.25,-94 412.25,-50 577.5,-50 577.5,-94"/>
<text text-anchor="start" x="420.25" y="-80.5" font-family="Helvetica,sans-Serif" font-size="10.00">rapportsystem&#45;backend.Requests.</text>
<text text-anchor="start" x="420.25" y="-68.5" font-family="Helvetica,sans-Serif" font-size="10.00">POST_R.adminDeleteUser.delete</text>
<text text-anchor="middle" x="494.88" y="-56.5" font-family="Helvetica,sans-Serif" font-size="10.00">_user_tokens</text>
</a>
</g>
</g>
<!-- Node3&#45;&gt;Node4 -->
<g id="edge3_Node000003_Node000004" class="edge">
<title>Node3&#45;&gt;Node4</title>
<g id="a_edge3_Node000003_Node000004"><a xlink:title=" ">
<path fill="none" stroke="#63b8ff" d="M366.88,-54.99C377.94,-56.47 389.36,-58 400.6,-59.5"/>
<polygon fill="#63b8ff" stroke="#63b8ff" points="399.89,-62.94 410.27,-60.8 400.82,-56 399.89,-62.94"/>
</a>
</g>
</g>
<!-- Node5 -->
<g id="Node000005" class="node">
<title>Node5</title>
<g id="a_Node000005"><a xlink:href="namespacerapportsystem-backend_1_1_requests_1_1_p_o_s_t___r_1_1admin_delete_user.html#a4edecb0fb6e2483cf01f16577b9dc7b3" target="_top" xlink:title=" ">
<polygon fill="white" stroke="#666666" points="587.25,-32 402.5,-32 402.5,0 587.25,0 587.25,-32"/>
<text text-anchor="start" x="410.5" y="-18.5" font-family="Helvetica,sans-Serif" font-size="10.00">rapportsystem&#45;backend.Requests.</text>
<text text-anchor="middle" x="494.88" y="-6.5" font-family="Helvetica,sans-Serif" font-size="10.00">POST_R.adminDeleteUser.get_user_id</text>
</a>
</g>
</g>
<!-- Node3&#45;&gt;Node5 -->
<g id="edge4_Node000003_Node000005" class="edge">
<title>Node3&#45;&gt;Node5</title>
<g id="a_edge4_Node000003_Node000005"><a xlink:title=" ">
<path fill="none" stroke="#63b8ff" d="M366.88,-33.01C374.73,-31.96 382.76,-30.89 390.77,-29.81"/>
<polygon fill="#63b8ff" stroke="#63b8ff" points="391.14,-33.3 400.58,-28.5 390.21,-26.36 391.14,-33.3"/>
</a>
</g>
</g>
</g>
</svg>
