<?xml version="1.0" encoding="UTF-8" standalone="no"?>
<!DOCTYPE svg PUBLIC "-//W3C//DTD SVG 1.1//EN"
 "http://www.w3.org/Graphics/SVG/1.1/DTD/svg11.dtd">
<!-- Generated by graphviz version 10.0.1 (20240210.2158)
 -->
<!-- Title: rapportsystem&#45;backend.Requests.POST_R.deleteUser.delete_user_route Pages: 1 -->
<svg width="658pt" height="165pt"
 viewBox="0.00 0.00 657.50 165.00" xmlns="http://www.w3.org/2000/svg" xmlns:xlink="http://www.w3.org/1999/xlink">
<g id="graph0" class="graph" transform="scale(1 1) rotate(0) translate(4 161)">
<title>rapportsystem&#45;backend.Requests.POST_R.deleteUser.delete_user_route</title>
<!-- Node1 -->
<g id="Node000001" class="node">
<title>Node1</title>
<g id="a_Node000001"><a xlink:title=" ">
<polygon fill="#999999" stroke="#666666" points="184,-107 0,-107 0,-75 184,-75 184,-107"/>
<text text-anchor="start" x="8" y="-93.5" font-family="Helvetica,sans-Serif" font-size="10.00">rapportsystem&#45;backend.Requests.</text>
<text text-anchor="middle" x="92" y="-81.5" font-family="Helvetica,sans-Serif" font-size="10.00">POST_R.deleteUser.delete_user_route</text>
</a>
</g>
</g>
<!-- Node2 -->
<g id="Node000002" class="node">
<title>Node2</title>
<g id="a_Node000002"><a xlink:href="namespacerapportsystem-backend_1_1_requests_1_1_p_o_s_t___r_1_1delete_user.html#a6ac70367ec75ddc19400ba9ee41ae4ab" target="_top" xlink:title=" ">
<polygon fill="white" stroke="#666666" points="412.25,-157 229.75,-157 229.75,-125 412.25,-125 412.25,-157"/>
<text text-anchor="start" x="237.75" y="-143.5" font-family="Helvetica,sans-Serif" font-size="10.00">rapportsystem&#45;backend.Requests.</text>
<text text-anchor="middle" x="321" y="-131.5" font-family="Helvetica,sans-Serif" font-size="10.00">POST_R.deleteUser.remove_database</text>
</a>
</g>
</g>
<!-- Node1&#45;&gt;Node2 -->
<g id="edge1_Node000001_Node000002" class="edge">
<title>Node1&#45;&gt;Node2</title>
<g id="a_edge1_Node000001_Node000002"><a xlink:title=" ">
<path fill="none" stroke="#63b8ff" d="M167.64,-107.44C188.98,-112.14 212.4,-117.3 234.34,-122.13"/>
<polygon fill="#63b8ff" stroke="#63b8ff" points="233.32,-125.49 243.83,-124.22 234.82,-118.65 233.32,-125.49"/>
</a>
</g>
</g>
<!-- Node3 -->
<g id="Node000003" class="node">
<title>Node3</title>
<g id="a_Node000003"><a xlink:href="namespacerapportsystem-backend_1_1_requests_1_1_p_o_s_t___r_1_1delete_user.html#a1ec8ae5bb73c951296fb6d45c26085b5" target="_top" xlink:title=" ">
<polygon fill="white" stroke="#666666" points="422,-107 220,-107 220,-75 422,-75 422,-107"/>
<text text-anchor="start" x="228" y="-93.5" font-family="Helvetica,sans-Serif" font-size="10.00">rapportsystem&#45;backend.Requests.</text>
<text text-anchor="middle" x="321" y="-81.5" font-family="Helvetica,sans-Serif" font-size="10.00">POST_R.deleteUser.remove_SQL_account</text>
</a>
</g>
</g>
<!-- Node1&#45;&gt;Node3 -->
<g id="edge2_Node000001_Node000003" class="edge">
<title>Node1&#45;&gt;Node3</title>
<g id="a_edge2_Node000001_Node000003"><a xlink:title=" ">
<path fill="none" stroke="#63b8ff" d="M184.35,-91C192.22,-91 200.24,-91 208.25,-91"/>
<polygon fill="#63b8ff" stroke="#63b8ff" points="208.03,-94.5 218.03,-91 208.03,-87.5 208.03,-94.5"/>
</a>
</g>
</g>
<!-- Node4 -->
<g id="Node000004" class="node">
<title>Node4</title>
<g id="a_Node000004"><a xlink:href="namespacerapportsystem-backend_1_1_requests_1_1_p_o_s_t___r_1_1delete_user.html#ac3884b3e7285d13eac75560230b65f86" target="_top" xlink:title=" ">
<polygon fill="white" stroke="#666666" points="421.62,-57 220.38,-57 220.38,-25 421.62,-25 421.62,-57"/>
<text text-anchor="start" x="228.38" y="-43.5" font-family="Helvetica,sans-Serif" font-size="10.00">rapportsystem&#45;backend.Requests.</text>
<text text-anchor="middle" x="321" y="-31.5" font-family="Helvetica,sans-Serif" font-size="10.00">POST_R.deleteUser.remove_user_account</text>
</a>
</g>
</g>
<!-- Node1&#45;&gt;Node4 -->
<g id="edge3_Node000001_Node000004" class="edge">
<title>Node1&#45;&gt;Node4</title>
<g id="a_edge3_Node000001_Node000004"><a xlink:title=" ">
<path fill="none" stroke="#63b8ff" d="M167.64,-74.56C188.98,-69.86 212.4,-64.7 234.34,-59.87"/>
<polygon fill="#63b8ff" stroke="#63b8ff" points="234.82,-63.35 243.83,-57.78 233.32,-56.51 234.82,-63.35"/>
</a>
</g>
</g>
<!-- Node5 -->
<g id="Node000005" class="node">
<title>Node5</title>
<g id="a_Node000005"><a xlink:href="namespacerapportsystem-backend_1_1_requests_1_1_p_o_s_t___r_1_1delete_user.html#a3448bc5ff1ca73ba4c3fc1a9e28b1678" target="_top" xlink:title=" ">
<polygon fill="white" stroke="#666666" points="649.5,-82 458,-82 458,-50 649.5,-50 649.5,-82"/>
<text text-anchor="start" x="466" y="-68.5" font-family="Helvetica,sans-Serif" font-size="10.00">rapportsystem&#45;backend.Requests.</text>
<text text-anchor="middle" x="553.75" y="-56.5" font-family="Helvetica,sans-Serif" font-size="10.00">POST_R.deleteUser.delete_user_tokens</text>
</a>
</g>
</g>
<!-- Node4&#45;&gt;Node5 -->
<g id="edge4_Node000004_Node000005" class="edge">
<title>Node4&#45;&gt;Node5</title>
<g id="a_edge4_Node000004_Node000005"><a xlink:title=" ">
<path fill="none" stroke="#63b8ff" d="M421.87,-51.82C430.07,-52.71 438.39,-53.61 446.64,-54.5"/>
<polygon fill="#63b8ff" stroke="#63b8ff" points="446.01,-57.96 456.33,-55.55 446.76,-51 446.01,-57.96"/>
</a>
</g>
</g>
<!-- Node6 -->
<g id="Node000006" class="node">
<title>Node6</title>
<g id="a_Node000006"><a xlink:href="namespacerapportsystem-backend_1_1_requests_1_1_p_o_s_t___r_1_1delete_user.html#a8117dc8fc7206be9bd67b39098781347" target="_top" xlink:title=" ">
<polygon fill="white" stroke="#666666" points="636.38,-32 471.12,-32 471.12,0 636.38,0 636.38,-32"/>
<text text-anchor="start" x="479.12" y="-18.5" font-family="Helvetica,sans-Serif" font-size="10.00">rapportsystem&#45;backend.Requests.</text>
<text text-anchor="middle" x="553.75" y="-6.5" font-family="Helvetica,sans-Serif" font-size="10.00">POST_R.deleteUser.get_user_id</text>
</a>
</g>
</g>
<!-- Node4&#45;&gt;Node6 -->
<g id="edge5_Node000004_Node000006" class="edge">
<title>Node4&#45;&gt;Node6</title>
<g id="a_edge5_Node000004_Node000006"><a xlink:title=" ">
<path fill="none" stroke="#63b8ff" d="M421.87,-30.18C434.36,-28.83 447.11,-27.45 459.5,-26.1"/>
<polygon fill="#63b8ff" stroke="#63b8ff" points="459.69,-29.6 469.25,-25.05 458.94,-22.64 459.69,-29.6"/>
</a>
</g>
</g>
</g>
</svg>
